HIERARCHY
ROOT Model_Hips
{
	OFFSET 0.000000 96.915077 0.000000
	CHANNELS 6 Xposition Yposition Zposition Xrotation Yrotation Zrotation
	JOINT Model_Spine
	{
		OFFSET 0.000000 11.137703 -1.289900
		CHANNELS 3 Xrotation Yrotation Zrotation
		JOINT Model_Spine1
		{
			OFFSET 0.000000 12.993942 -1.504922
			CHANNELS 3 Xrotation Yrotation Zrotation
			JOINT Model_Spine2
			{
				OFFSET 0.000000 14.850220 -1.719911
				CHANNELS 3 Xrotation Yrotation Zrotation
				JOINT Model_Neck
				{
					OFFSET 0.000000 16.706543 -1.934903
					CHANNELS 3 Xrotation Yrotation Zrotation
					JOINT Model_Head
					{
						OFFSET 0.000000 10.471298 2.002100
						CHANNELS 3 Xrotation Yrotation Zrotation
						JOINT Model_HeadTop_End
						{
							OFFSET 0.000000 20.842606 3.985100
							CHANNELS 3 Xrotation Yrotation Zrotation
							End Site
							{
								OFFSET 0.000000 21.220154 0.000000
							}
						}
					}
				}
				JOINT Model_LeftShoulder
				{
					OFFSET 7.008500 14.768600 -1.919946
					CHANNELS 3 Xrotation Yrotation Zrotation
					JOINT Model_LeftArm
					{
						OFFSET 14.126271 -3.718048 0.029937
						CHANNELS 3 Xrotation Yrotation Zrotation
						JOINT Model_LeftForeArm
						{
							OFFSET 28.282801 0.000000 0.000000
							CHANNELS 3 Xrotation Yrotation Zrotation
							JOINT Model_LeftHand
							{
								OFFSET 26.204689 0.000000 0.000000
								CHANNELS 3 Xrotation Yrotation Zrotation
								End Site
								{
									OFFSET 26.204704 0.000000 0.000000
								}
							}
						}
					}
				}
				JOINT Model_RightShoulder
				{
					OFFSET -7.008500 14.768555 -1.949840
					CHANNELS 3 Xrotation Yrotation Zrotation
					JOINT Model_RightArm
					{
						OFFSET -14.126281 -3.718018 -0.029932
						CHANNELS 3 Xrotation Yrotation Zrotation
						JOINT Model_RightForeArm
						{
							OFFSET -28.283798 0.000000 -0.000001
							CHANNELS 3 Xrotation Yrotation Zrotation
							JOINT Model_RightHand
							{
								OFFSET -26.204193 0.000000 -0.000001
								CHANNELS 3 Xrotation Yrotation Zrotation
								End Site
								{
									OFFSET -26.204208 0.000000 -0.000001
								}
							}
						}
					}
				}
			}
		}
	}
	JOINT Model_LeftUpLeg
	{
		OFFSET 8.327700 -6.193199 -0.402800
		CHANNELS 3 Xrotation Yrotation Zrotation
		JOINT Model_LeftLeg
		{
			OFFSET 0.735802 -42.108742 -0.610721
			CHANNELS 3 Xrotation Yrotation Zrotation
			JOINT Model_LeftFoot
			{
				OFFSET -0.735806 -36.833748 -0.172876
				CHANNELS 3 Xrotation Yrotation Zrotation
				JOINT Model_LeftToeBase
				{
					OFFSET -0.565857 -11.977769 16.297714
					CHANNELS 3 Xrotation Yrotation Zrotation
					JOINT Model_LeftToe_End
					{
						OFFSET -0.111712 -0.312793 7.857784
						CHANNELS 3 Xrotation Yrotation Zrotation
						End Site
						{
							OFFSET -0.111712 -0.312793 7.857784
						}
					}
				}
			}
		}
	}
	JOINT Model_RightUpLeg
	{
		OFFSET -8.327700 -6.193199 -0.516500
		CHANNELS 3 Xrotation Yrotation Zrotation
		JOINT Model_RightLeg
		{
			OFFSET -0.735785 -42.108738 -0.434061
			CHANNELS 3 Xrotation Yrotation Zrotation
			JOINT Model_RightFoot
			{
				OFFSET 0.735776 -36.833748 -0.021630
				CHANNELS 3 Xrotation Yrotation Zrotation
				JOINT Model_RightToeBase
				{
					OFFSET 0.565817 -11.977745 15.903093
					CHANNELS 3 Xrotation Yrotation Zrotation
					JOINT Model_RightToe_End
					{
						OFFSET 0.111702 -0.312791 7.811342
						CHANNELS 3 Xrotation Yrotation Zrotation
						End Site
						{
							OFFSET 0.111702 -0.312791 7.811342
						}
					}
				}
			}
		}
	}
}
MOTION
Frames: 10
Frame Time: 0.016667
2.024952 86.285820 149.510269 17.915689 1.272710 -6.118681 4.993253 -1.694155 1.605815 10.065737 -3.195589 4.130033 10.065745 -3.195589 4.130035 0.202511 0.330287 -0.935398 0.202555 0.330291 -0.935405 -0.000001 0.000001 -0.000000 1.182080 -16.983504 0.865891 -28.854855 -60.867962 -37.651281 5.246657 -107.881486 5.542413 -0.000000 -0.000002 0.000000 1.342416 -5.155171 -0.418848 81.162810 -2.031605 60.688164 -169.231146 58.936008 152.101264 0.000000 -0.000000 -0.000000 -12.699085 10.322063 5.851232 46.811996 -13.769471 -2.320955 -37.941639 10.029010 8.601971 -23.327782 -0.021157 0.136116 0.000001 0.000000 -0.000000 -70.944068 -20.318771 1.975897 131.501864 -3.482234 -8.331017 -25.556160 0.390954 -11.303906 5.472951 -0.000001 0.000001 0.000001 0.000001 0.000000 
2.553534 87.316246 159.491394 17.674607 -1.613673 -6.055637 4.755850 -1.283034 2.149927 9.571610 -2.553392 4.706718 9.571609 -2.553394 4.706718 0.358244 0.384884 -0.906674 0.358220 0.384883 -0.906676 0.000000 -0.000001 0.000000 1.599650 -16.152506 3.542696 -19.179574 -62.284140 -32.132130 6.050916 -107.288618 6.378780 0.000002 0.000001 0.000001 1.495510 -4.843909 0.194910 80.090047 0.561368 64.322057 -169.709656 56.065365 152.016392 0.000000 -0.000000 0.000000 -2.229514 13.323534 3.919887 35.648745 -12.891420 -1.942690 -26.066466 12.227266 5.184552 -32.173353 -0.281713 1.741663 0.000000 -0.000001 -0.000000 -77.010151 -16.442466 5.160131 125.256995 0.040257 -7.728521 -25.256882 -0.418135 -13.348984 10.713079 -0.000000 0.000011 -0.000004 0.000001 -0.000001 
3.035985 88.424843 169.836807 17.366026 -4.295486 -6.124325 4.628756 -0.867363 2.703471 9.307005 -2.042401 5.422874 9.306996 -2.042404 5.422876 0.467427 0.444431 -0.874399 0.467446 0.444434 -0.874404 0.000002 0.000000 -0.000000 1.658912 -15.172849 3.824948 -9.330907 -62.765996 -30.712362 6.125278 -106.637565 6.475282 -0.000000 -0.000000 0.000000 1.796898 -4.696006 1.972283 73.978646 2.315391 65.384301 -169.367900 56.898969 151.134082 -0.000001 0.000001 0.000001 5.823864 15.740403 2.180658 25.591930 -12.099579 -1.058433 -7.960328 12.901969 -0.895429 -42.236514 -0.708157 0.751697 0.000000 -0.000001 -0.000000 -79.965034 -13.490132 7.690099 115.353535 2.899943 -6.500089 -26.097410 -2.666430 -14.642522 12.291161 0.000002 0.000001 0.000000 -0.000001 -0.000000 
3.564148 89.410530 180.292007 17.261631 -6.358306 -6.447617 4.640792 -0.586493 3.271482 9.330849 -1.841245 6.243537 9.330852 -1.841249 6.243541 0.517854 0.509601 -0.848890 0.517836 0.509601 -0.848888 0.000004 -0.000001 -0.000000 1.411730 -14.405345 1.682536 -2.324364 -62.045630 -33.266952 5.760298 -105.742735 6.149790 0.000000 -0.000001 -0.000001 2.096506 -4.886378 4.143559 65.124556 2.696543 63.138398 -168.560176 59.163556 150.050691 0.000001 -0.000001 0.000000 15.163947 17.597323 0.853685 10.026320 -7.606543 -0.507984 15.499970 5.789294 -11.535168 -52.983372 -3.115552 4.677596 0.000000 -0.000001 -0.000000 -80.455940 -11.191185 8.861100 102.560263 5.392402 -4.030143 -28.376183 -4.042877 -15.088818 12.361441 0.000002 -0.000001 0.000000 0.000000 -0.000000 
4.085743 90.068382 190.322937 17.559592 -7.725046 -6.897160 4.819586 -0.469337 3.741511 9.701605 -1.992646 7.198643 9.701608 -1.992647 7.198642 0.496963 0.575803 -0.836122 0.496969 0.575799 -0.836124 0.000003 -0.000002 0.000002 1.060101 -13.616991 -2.054974 1.610199 -60.172355 -39.169796 5.868576 -103.778400 6.389862 0.000001 -0.000000 -0.000000 2.338433 -5.230590 6.331428 53.818298 3.231566 58.335853 -166.409158 63.449718 148.293297 -0.000001 0.000001 0.000000 15.889518 18.664861 1.952920 14.186011 -7.758618 -0.432471 16.888898 0.224660 -12.711633 -22.446387 -4.201197 12.310653 -0.000004 0.000000 -0.000000 -79.311023 -9.343672 9.385642 87.493023 6.438981 -0.901153 -29.518684 -3.226874 -13.034931 11.481567 -0.000000 0.000002 -0.000001 -0.000000 0.000000 
4.542983 90.389893 199.930771 17.948933 -8.562094 -7.044108 5.203921 -0.519530 4.065829 10.497924 -2.443624 8.163340 10.497934 -2.443629 8.163338 0.402084 0.633227 -0.841484 0.402124 0.633228 -0.841498 -0.000001 0.000002 -0.000001 0.876103 -12.345365 -5.993004 1.215656 -56.743344 -49.010576 6.300305 -99.986169 6.935542 -0.000000 0.000000 0.000000 2.548561 -5.324128 8.683561 40.968240 5.473408 52.945332 -161.356662 70.090069 144.279045 0.000001 -0.000001 0.000000 9.653061 19.254600 4.729711 31.414673 -7.598801 -0.303870 12.714289 0.741434 -8.270797 -3.594866 0.000006 0.000002 0.000001 -0.000000 -0.000001 -76.098327 -7.013795 10.046090 70.878546 5.131368 1.447909 -29.355187 -1.175776 -5.743233 9.821260 -0.000002 0.000003 -0.000000 -0.000000 0.000000 
4.842229 90.378052 209.262924 18.048143 -8.997073 -6.885798 5.767643 -0.715184 4.362729 11.662258 -3.028323 9.011967 11.662267 -3.028326 9.011964 0.237864 0.670918 -0.865918 0.237908 0.670917 -0.865919 0.000002 0.000000 -0.000000 1.045323 -10.415367 -9.056110 -1.839100 -50.343736 -60.580950 6.567882 -94.966014 7.273422 -0.000001 0.000001 0.000001 2.756605 -4.774063 11.615228 27.490183 9.844379 49.065480 -147.627176 77.925212 131.969022 0.000000 -0.000001 0.000002 6.195014 19.868409 6.495946 44.206330 -10.496161 0.235302 10.950181 7.080922 -3.218665 -3.594898 0.000001 0.000001 -0.000001 0.000000 0.000001 -70.236304 -4.063226 11.240104 52.992415 3.315255 1.144753 -27.730373 -2.018851 6.081697 8.451186 0.000002 0.000004 0.000003 -0.000000 0.000001 
4.810993 90.227539 218.621490 17.602866 -9.376108 -6.243224 6.423903 -0.949515 4.482524 13.003186 -3.422892 9.474432 13.003178 -3.422895 9.474428 0.022818 0.679830 -0.911125 0.022825 0.679816 -0.911127 -0.000001 0.000001 -0.000001 1.549914 -7.958378 -11.094056 -3.464746 -40.731276 -69.241719 -0.721485 -89.672707 0.022415 0.000001 -0.000001 0.000001 2.850137 -3.434043 14.957435 14.316293 15.869224 48.755796 -99.625542 83.671183 85.394502 -0.000000 -0.000004 -0.000001 4.432244 20.540481 7.786948 55.113558 -13.526212 0.657085 9.394912 15.527552 2.163024 -3.594858 -0.000004 0.000001 0.000000 0.000000 -0.000001 -60.822650 -1.576330 11.847904 33.188220 1.255329 0.236927 -21.861585 -3.112231 14.312458 8.052710 0.000001 0.000008 0.000000 0.000001 -0.000002 
4.570242 89.908829 228.037994 16.785928 -10.025926 -4.887192 7.032319 -1.022611 4.276987 14.217690 -3.347075 9.259979 14.217688 -3.347069 9.259975 -0.214405 0.656564 -0.976407 -0.214370 0.656563 -0.976399 0.000001 0.000000 0.000001 2.273552 -5.290678 -12.421541 -2.264376 -30.846657 -72.791751 4.183244 -86.587073 4.927370 -0.000002 0.000001 -0.000000 2.660910 -1.644443 17.774877 2.205474 21.849531 52.257620 -50.411519 82.722402 37.388613 -0.000001 -0.000000 -0.000001 3.286809 21.493992 8.410354 65.660637 -8.347618 1.365466 6.298581 16.497999 8.099149 -3.594837 -0.000007 0.000007 0.000000 -0.000000 -0.000000 -52.901984 -1.475496 12.982801 20.694194 8.214099 1.346690 -2.576514 -6.143305 -1.048315 8.624682 0.000001 0.000002 0.000001 0.000000 -0.000000 
4.242116 89.350677 237.219666 15.969563 -10.940799 -3.312169 7.494782 -0.770298 3.915337 15.099612 -2.619570 8.505886 15.099608 -2.619572 8.505881 -0.439654 0.604403 -1.061959 -0.439648 0.604401 -1.061967 -0.000004 -0.000002 0.000003 3.106551 -2.809763 -13.166527 1.831584 -22.791995 -72.651254 3.684681 -86.516251 4.344394 0.000000 -0.000002 -0.000001 2.196108 0.008072 19.205829 -8.473912 26.515389 58.429277 -41.108651 83.102700 29.420282 -0.000000 0.000001 0.000001 0.982177 22.102706 9.441234 77.380081 -10.450963 1.603054 1.820614 24.011725 12.270604 -3.594880 0.000005 0.000001 0.000000 0.000002 -0.000001 -48.448181 -3.199919 13.051942 18.861900 12.698239 2.235921 4.999870 -10.423630 -9.878615 9.456271 -0.000003 0.000000 0.000000 -0.000000 0.000000 
